P1
64 128
1111111111111111111111111111111111111111111111111111111111111111111111
1111111111111111111111111111111111111111111111111111111111111111111111
1111111111111111111111111111111111111111111111111111111111111111111111
1111111111111111111111111111111111111111111111111111111111111111111111
1111111111111111111111111111111111111111111111111111111111111111111111
1111111111111111111111111111111111111111111111111111111111111111111111
1111111111111111111111111111111111111111111111111111111111111111111111
1111111111111111111111111111111111111111111111111111111111111111111111
1111111111111111111111111111111111111111111111111111111111111111111111
1111111111111111111111111111111111111111111111111111111111111111111111
1111111111111111111111111111111111111111111111111111111111111111111111
1111111111111111111111111111111111111111111111111111111111111111111111
1111111111111111111111111111111111111111111111111111111111111111111111
1111111111111111111111111111111111111111111111111111111111111111111111
1111111111111111111111111111111111111111111111111111111111111111111111
1111111111111111111111111111111111111111111111111111111111111111111111
1111111111111111111111111111111111111111111111111111111111111111111111
1111111111111111111111111111111111111111111111111111111111111111111111
1111111111111111111111111111111111111111111111111111111111111111111111
1111111111111111111111111111111111111111111111111111111111111111111111
1111111111111111111111111111111111111111111111111111111111111111111111
1111111111111111111111111111111111111111111111111111111111111111111111
1111111111111111111111111111111111111111111111111111111111111111111111
1111111111111111111111111111111111111111111111111111111111111111111111
1111111111111111111111111111111111111111111111111111111111111111111111
1111111111111111111111111111111111111111111111111111111111111111111111
1111111111111111111111111111111111111111111111111111111111111111111111
1111111111111111111111111111111111111111111111111111111111111111111111
1111111111111111111111111111111111111111111111111111111111111111111111
1111111111111111111111111111111111111111111111111111111111111111111111
1111111111111111111111111111111111100000000000000000001111111111111111
1111111111111111111111111000000000000000000000000000011111111111111111
1111111111111111000000000000000000000000000000000111111111111111111111
1111111100000000000000000000000000000000000001111111111111111111111111
1000000000000000000000000000000000000000111111111111111111111111000000
0000000000000000000000000000000000011111111111111111111110000000000000
0000000000000000000000000000001111111111111111111110000000000000000000
0000000000000000000000001111111111111111111110000000000000000000000000
0000000000000000001111111111111111111110000000000000000000000000000000
0000000000001111111111111111111111000000000000000000000000000000000000
0000011111111111111111111110000000000000000000000000000000000000000001
1111111111111111111111000000000000000000000000000000000000000011111111
1111111111111111000000000000000000000000000000000000000011111111111111
1111111111000000000000000000000000000000000000000111111111111111111111
1111000000000000000000000000000000000000000111111111111111111111111110
0000000000000000000000000000000000000111111111111111111111111110000000
0000000000000000000000000000001111111111111111111111111110000000000000
0000000000000000000000001111111111111111111111111110000000000000000000
0000000000000000001111111111111111111111111110000000000000000000000000
0000000000001111111111111111111111111111000000000000000000000000000000
0000011111111111111111111111111111000000000000000000000000000000000001
1111111111111111111111111111000000000000000000000000000000000001111111
1111111111111111111111000000000000000000000000000000000011111111111111
1111111111111111100000000000000000000000000000000011111111111111111111
1111111111100000000000000000000000000000000011111111111111111111111111
1111100000000000000000000000000000000111111111111111111111111111111110
0000000000000000000000000000000111111111111111111111111111111111000000
0000000000000000000000000111111111111111111111111111111111000000000000
0000000000000000000111111111111111111111111111111111000000000000000000
0000000000001111111111111111111111111111111111000000000000000000000000
0000001111111111111111111111111111111111000000000000000000000000000000
1111111111111111111111111111111111100000000000000000000000000001111111
1111111111111111111111111111100000000000000000000000000001111111111111
1111111111111111111111100000000000000000000000000001111111111111111111
1111111111111111100000000000000000000000000011111111111111111111111111
1111111111110000000000000000000000000011111111111111111111111111111111
1111110000000000000000000000000011111111111111111111111111111111111111
0000000000000000000000000011111111111111111111111111111111111111000000
0000000000000000000111111111111111111111111111111111111111000000000000
0000000000000111111111111111111111111111111111111111100000000000000000
0000000111111111111111111111111111111111111111100000000000000000000000
1111111111111111111111111111111111111111100000000000000000000000111111
1111111111111111111111111111111111100000000000000000000000111111111111
1111111111111111111111111111110000000000000000000001111111111111111111
1111111111111111111111110000000000000000000001111111111111111111111111
1111111111111111110000000000000000000001111111111111111111111111111111
1111111111110000000000000000000001111111111111111111111111111111111111
1111110000000000000000000011111111111111111111111111111111111111111111
1000000000000000000011111111111111111111111111111111111111111111100000
0000000000000011111111111111111111111111111111111111111111100000000000
0000000111111111111111111111111111111111111111111111100000000000000000
0111111111111111111111111111111111111111111111110000000000000000011111
1111111111111111111111111111111111111111110000000000000000111111111111
1111111111111111111111111111111111110000000000000000111111111111111111
1111111111111111111111111111110000000000000000111111111111111111111111
1111111111111111111111110000000000000000111111111111111111111111111111
1111111111111111111000000000000001111111111111111111111111111111111111
1111111111111000000000000001111111111111111111111111111111111111111111
1111111000000000000001111111111111111111111111111111111111111111111111
1000000000000011111111111111111111111111111111111111111111111111110000
0000000011111111111111111111111111111111111111111111111111110000000000
0011111111111111111111111111111111111111111111111111110000000000011111
1111111111111111111111111111111111111111111111110000000000011111111111
1111111111111111111111111111111111111111111000000000011111111111111111
1111111111111111111111111111111111111000000000011111111111111111111111
1111111111111111111111111111111000000000111111111111111111111111111111
1111111111111111111111111000000000111111111111111111111111111111111111
1111111111111111111000000000111111111111111111111111111111111111111111
1111111111111100000001111111111111111111111111111111111111111111111111
1111111100000001111111111111111111111111111111111111111111111111111111
1100000001111111111111111111111111111111111111111111111111111111110000
0011111111111111111111111111111111111111111111111111111111111000001111
1111111111111111111111111111111111111111111111111111111000001111111111
1111111111111111111111111111111111111111111111111000001111111111111111
1111111111111111111111111111111111111111111000011111111111111111111111
1111111111111111111111111111111111111000011111111111111111111111111111
1111111111111111111111111111111100011111111111111111111111111111111111
1111111111111111111111111100111111111111111111111111111111111111111111
1111111111111111111100111111111111111111111111111111111111111111111111
1111111111111100111111111111111111111111111111111111111111111111111111
1111111111111111111111111111111111111111111111111111111111111111111111
1111111111111111111111111111111111111111111111111111111111111111111111
1111111111111111111111111111111111111111111111111111111111111111111111
1111111111111111111111111111111111111111111111111111111111111111111111
1111111111111111111111111111111111111111111111111111111111111111111111
1111111111111111111111111111111111111111111111111111111111111111111111
1111111111111111111111111111111111111111111111111111111111111111111111
11
