P1
128 128
1111111111111111111111111111111111111111111111111111111000000000000000
0011111111111111111111111111111111111111111111111111111111111111111111
1111111111111111111111111111111111111000000000000000000000000000001111
1111111111111111111111111111111111111111111111111111111111111111111111
1111111111111111111110000000000000000000000000000000000000111111111111
1111111111111111111111111111111111111111111111111111111111111111111111
1111110000000000000000000000000000000000000000000111111111111111111111
1111111111111111111111111111111111111111111111111111111111111100000000
0000000000000000000000000000000000000001111111111111111111111111111111
1111111111111111111111111111111111111111111111100000000000000000000000
0000000000000000000000000000001111111111111111111111111111111111111111
1111111111111111111111111111111110000000000000000000000000000000000000
0000000000000000000011111111111111111111111111111111111111111111111111
1111111111111111111000000000000000000000000000000000000000000000000000
0000000000111111111111111111111111111111111111111111111111111111111111
1111110000000000000000000000000000000000000000000000000000000000000001
1111111111111111111111111111111111111111111111111111111111111100000000
0000000000000000000000000000000000000000000000000000000000011111111111
1111111111111111111111111111111111111111111111110000000000000000000000
0000000000000000000000000000000000000000000000000111111111111111111111
1111111111111111111111111111111111100000000000000000000000000000000000
0000000000000000000000000000000000000011111111111111111111111111111111
1111111111111111111110000000000000000000000000000000000000000000000000
0000000000000000000000000000111111111111111111111111111111111111111111
1111111100000000000000000000000000000000000000000000000000000000000000
0000000000000000011111111111111111111111111111111111111111111111100000
0000000000000000000000000000000000000000000000000000000000000000000000
0000001111111111111111111111111111111111111111111111000000000000000000
0000000000000000000000000000000000000000000000000000000000000000011111
1111111111111111111111111111111111111110000000000000000000000000000000
0000000000000000000000000000000000000000000000000000001111111111111111
1111111111111111111111111100000000000000000000000000000000000000000000
0000000000000000000000000000000000000000000111111111111111111111111111
1111111111111000000000000000000000000000000000000000000000000000000000
0000000000000000000000000000000011111111111111111111111111111111111111
0000000000000000000000000000000000000000000000000000000000000000000000
0000000000000000000001111111111111111111111111111111111110000000000000
0000000000000000000000000000000000000000000000000000000000000000000000
0000000000111111111111111111111111111111111100000000000000000000000000
0000000000000000000000000000000000000000000000000000000000000000000001
1111111111111111111111111111111000000000000000000000000000000000000000
0000000000000000000000000000000000000000000000000000000000111111111111
1111111111111111110000000000000000000000000000000000000000000000000000
0000000000000000000000000000000000000000000000011111111111111111111111
1111100000000000000000000000000000000000000000000000000000000000000000
0000000000000000000000000000000000001111111111111111111111111100000000
0000000000000000000000000000000000000000000000000000000000000000000000
0000000000000000000000000111111111111111111111111100000000000000000000
0000000000000000000000000000000000000000000000000000000000000000000000
0000000000000111111111111111111111111000000000000000000000000000000000
0000000000000000000000000000000000000000000000000000000000000000000000
0011111111111111111111110000000000000000000000000000000000000000000000
0000000000000000000000000000000000000000000000000000000000000111111111
1111111111110000000000000000000000000000000000000000000000000000000000
0000000000000000000000000000000000000000000000000111111111111111111110
0000000000000000000000000000000000000000000000000000000000000000000000
0000000000000000000000000000000000000011111111111111111110000000000000
0000000000000000000000000000000000000000000000000000000000000000000000
0000000000000000000000000011111111111111111100000000000000000000000000
0000000000000000000000000000000000000000000000000000000000000000000000
0000000000000001111111111111111000000000000000000000000000000000000000
0000000000000000000000000000000000000000000000000000000000000000000000
0000111111111111111000000000000000000000000000000000000000000000000000
0000000000000000000000000000000000000000000000000000000000000011111111
1111110000000000000000000000000000000000000000000000000000000000000000
0000000000000000000000000000000000000000000000000001111111111111000000
0000000000000000000000000000000000000000000000000000000000000000000000
0000000000000000000000000000000000000001111111111110000000000000000000
0000000000000000000000000000000000000000000000000000000000000000000000
0000000000000000000000000000111111111110000000000000000000000000000000
0000000000000000000000000000000000000000000000000000000000000000000000
0000000000000000111111111110000000000000000000000000000000000000000000
0000000000000000000000000000000000000000000000000000000000000000000000
0000111111111100000000000000000000000000000000000000000000000000000000
0000000000000000000000000000000000000000000000000000000000000001111111
1100000000000000000000000000000000000000000000000000000000000000000000
0000000000000000000000000000000000000000000000000001111111100000000000
0000000000000000000000000000000000000000000000000000000000000000000000
0000000000000000000000000000000000000000111111100000000000000000000000
0000000000000000000000000000000000000000000000000000000000000000000000
0000000000000000000000000000111111100000000000000000000000000000000000
0000000000000000000000000000000000000000000000000000000000000000000000
0000000000000000111111000000000000000000000000000000000000000000000000
0000000000000000000000000000000000000000000000000000000000000000000000
0000011111000000000000000000000000000000000000000000000000000000000000
0000000000000000000000000000000000000000000000000000000000000001111100
0000000000000000000000000000000000000000000000000000000000000000000000
0000000000000000000000000000000000000000000000000001111100000000000000
0000000000000000000000000000000000000000000000000000000000000000000000
0000000000000000000000000000000000000001111000000000000000000000000000
0000000000000000000000000000000000000000000000000000000000000000000000
0000000000000000000000000000111000000000000000000000000000000000000000
0000000000000000000000000000000000000000000000000000000000000000000000
0000000000000000111000000000000000000000000000000000000000000000000000
0000000000000000000000000000000000000000000000000000000000000000000000
0000111000000000000000000000000000000000000000000000000000000000000000
0000000000000000000000000000000000000000000000000000000000000011100000
0000000000000000000000000000000000000000000000000000000000000000000000
0000000000000000000000000000000000000000000000000011100000000000000000
0000000000000000000000000000000000000000000000000000000000000000000000
0000000000000000000000000000000000000011000000000000000000000000000000
0000000000000000000000000000000000000000000000000000000000000000000000
0000000000000000000000000001000000000000000000000000000000000000000000
0000000000000000000000000000000000000000000000000000000000000000000000
0000000000000001000000000000000000000000000000000000000000000000000000
0000000000000000000000000000000000000000000000000000000000000000000000
0001000000000000000000000000000000000000000000000000000000000000000000
0000000000000000000000000000000000000000000000000000000000000100000000
0000000000000000000000000000000000000000000000000000000000000000000000
0000000000000000000000000000000000000000000000000100000000000000000000
0000000000000000000000000000000000000000000000000000000000000000000000
0000000000000000000000000000000000000100000000000000000000000000000000
0000000000000000000000000000000000000000000000000000000000000000000000
0000000000000000000000000100000000000000000000000000000000000000000000
0000000000000000000000000000000000000000000000000000000000000000000000
0000000000000100000000000000000000000000000000000000000000000000000000
0000000000000000000000000000000000000000000000000000000000000000000000
0100000000000000000000000000000000000000000000000000000000000000000000
0000000000000000000000000000000000000000000000000000000000010000000000
0000000000000000000000000000000000000000000000000000000000000000000000
0000000000000000000000000000000000000000000000010000000000000000000000
0000000000000000000000000000000000000000000000000000000000000000000000
0000000000000000000000000000000000010000000000000000000000000000000000
0000000000000000000000000000000000000000000000000000000000000000000000
0000000000000000000000010000000000000000000000000000000000000000000000
0000000000000000000000000000000000000000000000000000000000000000000000
0000000000010000000000000000000000000000000000000000000000000000000000
0000000000000000000000000000000000000000000000000000000000000000000001
0000000000000000000000000000000000000000000000000000000000000000000000
0000000000000000000000000000000000000000000000000000000001000000000000
0000000000000000000000000000000000000000000000000000000000000000000000
0000000000000000000000000000000000000000000001100000000000000000000000
0000000000000000000000000000000000000000000000000000000000000000000000
0000000000000000000000000000000011100000000000000000000000000000000000
0000000000000000000000000000000000000000000000000000000000000000000000
0000000000000000000011100000000000000000000000000000000000000000000000
0000000000000000000000000000000000000000000000000000000000000000000000
0000000011100000000000000000000000000000000000000000000000000000000000
0000000000000000000000000000000000000000000000000000000000000000001110
0000000000000000000000000000000000000000000000000000000000000000000000
0000000000000000000000000000000000000000000000000000001110000000000000
0000000000000000000000000000000000000000000000000000000000000000000000
0000000000000000000000000000000000000000001111000000000000000000000000
0000000000000000000000000000000000000000000000000000000000000000000000
0000000000000000000000000000011111000000000000000000000000000000000000
0000000000000000000000000000000000000000000000000000000000000000000000
0000000000000000011111000000000000000000000000000000000000000000000000
0000000000000000000000000000000000000000000000000000000000000000000000
0000011111000000000000000000000000000000000000000000000000000000000000
0000000000000000000000000000000000000000000000000000000000000001111110
0000000000000000000000000000000000000000000000000000000000000000000000
0000000000000000000000000000000000000000000000000011111110000000000000
0000000000000000000000000000000000000000000000000000000000000000000000
0000000000000000000000000000000000000011111110000000000000000000000000
0000000000000000000000000000000000000000000000000000000000000000000000
0000000000000000000000000011111111000000000000000000000000000000000000
0000000000000000000000000000000000000000000000000000000000000000000000
0000000000000111111111000000000000000000000000000000000000000000000000
0000000000000000000000000000000000000000000000000000000000000000000000
0111111111100000000000000000000000000000000000000000000000000000000000
0000000000000000000000000000000000000000000000000000000000111111111110
0000000000000000000000000000000000000000000000000000000000000000000000
0000000000000000000000000000000000000000000000111111111110000000000000
0000000000000000000000000000000000000000000000000000000000000000000000
0000000000000000000000000000000000111111111111000000000000000000000000
0000000000000000000000000000000000000000000000000000000000000000000000
0000000000000000000001111111111111000000000000000000000000000000000000
0000000000000000000000000000000000000000000000000000000000000000000000
0000000001111111111111100000000000000000000000000000000000000000000000
0000000000000000000000000000000000000000000000000000000000000000001111
1111111111100000000000000000000000000000000000000000000000000000000000
0000000000000000000000000000000000000000000000000000001111111111111111
0000000000000000000000000000000000000000000000000000000000000000000000
0000000000000000000000000000000000000000011111111111111111100000000000
0000000000000000000000000000000000000000000000000000000000000000000000
0000000000000000000000000000111111111111111111100000000000000000000000
0000000000000000000000000000000000000000000000000000000000000000000000
0000000000000000111111111111111111110000000000000000000000000000000000
0000000000000000000000000000000000000000000000000000000000000000000000
0001111111111111111111110000000000000000000000000000000000000000000000
0000000000000000000000000000000000000000000000000000000000000111111111
1111111111111000000000000000000000000000000000000000000000000000000000
0000000000000000000000000000000000000000000000001111111111111111111111
1100000000000000000000000000000000000000000000000000000000000000000000
0000000000000000000000000000000000011111111111111111111111110000000000
0000000000000000000000000000000000000000000000000000000000000000000000
0000000000000000000000011111111111111111111111111000000000000000000000
0000000000000000000000000000000000000000000000000000000000000000000000
0000000000111111111111111111111111111100000000000000000000000000000000
0000000000000000000000000000000000000000000000000000000000000000000111
1111111111111111111111111110000000000000000000000000000000000000000000
0000000000000000000000000000000000000000000000000000001111111111111111
1111111111111111000000000000000000000000000000000000000000000000000000
0000000000000000000000000000000000000000011111111111111111111111111111
1111100000000000000000000000000000000000000000000000000000000000000000
0000000000000000000000000000111111111111111111111111111111111111000000
0000000000000000000000000000000000000000000000000000000000000000000000
0000000000000001111111111111111111111111111111111111100000000000000000
0000000000000000000000000000000000000000000000000000000000000000000000
0011111111111111111111111111111111111111110000000000000000000000000000
0000000000000000000000000000000000000000000000000000000000011111111111
1111111111111111111111111111111000000000000000000000000000000000000000
0000000000000000000000000000000000000000000000111111111111111111111111
1111111111111111111100000000000000000000000000000000000000000000000000
0000000000000000000000000000000001111111111111111111111111111111111111
1111111110000000000000000000000000000000000000000000000000000000000000
0000000000000000000011111111111111111111111111111111111111111111111100
0000000000000000000000000000000000000000000000000000000000000000000000
0000000111111111111111111111111111111111111111111111111110000000000000
0000000000000000000000000000000000000000000000000000000000000000111111
1111111111111111111111111111111111111111111111100000000000000000000000
0000000000000000000000000000000000000000000000000011111111111111111111
1111111111111111111111111111111111110000000000000000000000000000000000
0000000000000000000000000000000000000111111111111111111111111111111111
1111111111111111111111111100000000000000000000000000000000000000000000
0000000000000000000000011111111111111111111111111111111111111111111111
1111111111111111000000000000000000000000000000000000000000000000000000
0000000001111111111111111111111111111111111111111111111111111111111111
1111100000000000000000000000000000000000000000000000000000000000001111
1111111111111111111111111111111111111111111111111111111111111111100000
0000000000000000000000000000000000000000000000000000111111111111111111
1111111111111111111111111111111111111111111111111111111000000000000000
0000000000000000000000000000000000000011111111111111111111111111111111
1111111111111111111111111111111111111111111111000000000000000000000000
0000000000000000000000011111111111111111111111111111111111111111111111
1111111111111111111111111111111111110000000000000000000000000000000000
0000000001111111111111111111111111111111111111111111111111111111111111
1111111111111111111111111110000000000000000000000000000000000000111111
1111111111111111111111111111111111111111111111111111111111111111111111
1111111111111111111000000000000000000000000000001111111111111111111111
1111111111111111111111111111111111111111111111111111111111111111111111
1111111111111000000000000000001111111111111111111111111111111111111111
1111111111111111111111111111111111111111111111111111111111111111111111
1111111111111111111111111111111111111111111111111111111111111111111111
1111
